<svg width="1964" height="149" viewBox="0 0 1964 149" fill="none" xmlns="http://www.w3.org/2000/svg">
<g>
<g filter="url(#filter0_f_42_41)">
<path d="M161.364 99.4432L88.9205 27H37.5L109.943 99.4432H161.364Z" fill="url(#paint0_linear_42_41)"/>
<path d="M237.5 99.4432L165.057 27H113.636L186.08 99.4432H237.5Z" fill="url(#paint1_linear_42_41)"/>
<path d="M161.364 102.943H169.813L163.839 96.9683L91.3953 24.5251L90.3702 23.5H88.9205H37.5H29.0503L35.0251 29.4749L107.468 101.918L108.493 102.943H109.943H161.364ZM237.5 102.943H245.95L239.975 96.9683L167.532 24.5251L166.507 23.5H165.057H113.636H105.187L111.161 29.4749L183.605 101.918L184.63 102.943H186.08H237.5Z" stroke="url(#paint2_linear_42_41)" stroke-width="7" stroke-linecap="square"/>
</g>
<g filter="url(#filter1_f_42_41)">
<path d="M1850.36 27.2209L1777.92 99.4431H1726.5L1798.94 27.2209H1850.36Z" fill="url(#paint3_linear_42_41)"/>
<path d="M1926.5 27.2209L1854.06 99.4431H1802.64L1875.08 27.2209H1926.5Z" fill="url(#paint4_linear_42_41)"/>
<path d="M1850.36 23.7209H1858.83L1852.83 29.6995L1780.39 101.922L1779.37 102.943H1777.92H1726.5H1718.03L1724.03 96.9645L1796.47 24.7422L1797.5 23.7209H1798.94H1850.36ZM1926.5 23.7209H1934.97L1928.97 29.6995L1856.53 101.922L1855.5 102.943H1854.06H1802.64H1794.17L1800.17 96.9645L1872.61 24.7422L1873.63 23.7209H1875.08H1926.5Z" stroke="url(#paint5_linear_42_41)" stroke-width="7" stroke-linecap="square"/>
</g>
<g filter="url(#filter2_b_42_41)">
<path d="M23 114.443H255L329.5 89.9431H669.5L722 113.443H1229.5L1294.5 91.4431H1631.5L1706.5 113.443H1936" stroke="#5D73E6" stroke-width="7" stroke-linecap="square"/>
</g>
<g filter="url(#filter3_f_42_41)">
<path d="M669.5 75.9431L722 99.4431H1229.5L1294.5 77.4431" stroke="#5D73E6" stroke-width="18"/>
</g>
<g/>
<defs>
<filter id="filter0_f_42_41" x="0.600586" y="0" width="273.799" height="126.443" filterUnits="userSpaceOnUse" color-interpolation-filters="sRGB">
<feFlood flood-opacity="0" result="BackgroundImageFix"/>
<feBlend mode="normal" in="SourceGraphic" in2="BackgroundImageFix" result="shape"/>
<feGaussianBlur stdDeviation="10" result="effect1_foregroundBlur_42_41"/>
</filter>
<filter id="filter1_f_42_41" x="1689.56" y="0.220947" width="273.872" height="126.222" filterUnits="userSpaceOnUse" color-interpolation-filters="sRGB">
<feFlood flood-opacity="0" result="BackgroundImageFix"/>
<feBlend mode="normal" in="SourceGraphic" in2="BackgroundImageFix" result="shape"/>
<feGaussianBlur stdDeviation="10" result="effect1_foregroundBlur_42_41"/>
</filter>
<filter id="filter2_b_42_41" x="15.5" y="82.4431" width="1928" height="39.5" filterUnits="userSpaceOnUse" color-interpolation-filters="sRGB">
<feFlood flood-opacity="0" result="BackgroundImageFix"/>
<feGaussianBlur in="BackgroundImageFix" stdDeviation="2"/>
<feComposite in2="SourceAlpha" operator="in" result="effect1_backgroundBlur_42_41"/>
<feBlend mode="normal" in="SourceGraphic" in2="effect1_backgroundBlur_42_41" result="shape"/>
</filter>
<filter id="filter3_f_42_41" x="614.723" y="16.6285" width="733.762" height="142.915" filterUnits="userSpaceOnUse" color-interpolation-filters="sRGB">
<feFlood flood-opacity="0" result="BackgroundImageFix"/>
<feBlend mode="normal" in="SourceGraphic" in2="BackgroundImageFix" result="shape"/>
<feGaussianBlur stdDeviation="25.55" result="effect1_foregroundBlur_42_41"/>
</filter>
<linearGradient id="paint0_linear_42_41" x1="137.5" y1="17.9091" x2="142.33" y2="107.114" gradientUnits="userSpaceOnUse">
<stop stop-color="#5D73E6"/>
<stop offset="1" stop-color="#777FC9" stop-opacity="0.62"/>
</linearGradient>
<linearGradient id="paint1_linear_42_41" x1="137.5" y1="17.9091" x2="142.33" y2="107.114" gradientUnits="userSpaceOnUse">
<stop stop-color="#5D73E6"/>
<stop offset="1" stop-color="#777FC9" stop-opacity="0.62"/>
</linearGradient>
<linearGradient id="paint2_linear_42_41" x1="137.5" y1="27" x2="137.5" y2="99.4432" gradientUnits="userSpaceOnUse">
<stop stop-color="#5D73E6"/>
<stop offset="1" stop-color="#777FC9" stop-opacity="0.62"/>
</linearGradient>
<linearGradient id="paint3_linear_42_41" x1="1826.5" y1="99.4431" x2="1826.5" y2="27.2209" gradientUnits="userSpaceOnUse">
<stop stop-color="#5D73E6"/>
<stop offset="1" stop-color="#777FC9" stop-opacity="0.62"/>
</linearGradient>
<linearGradient id="paint4_linear_42_41" x1="1826.5" y1="99.4431" x2="1826.5" y2="27.2209" gradientUnits="userSpaceOnUse">
<stop stop-color="#5D73E6"/>
<stop offset="1" stop-color="#777FC9" stop-opacity="0.62"/>
</linearGradient>
<linearGradient id="paint5_linear_42_41" x1="1826.5" y1="99.4431" x2="1826.5" y2="27.2209" gradientUnits="userSpaceOnUse">
<stop stop-color="#5D73E6"/>
<stop offset="1" stop-color="#777FC9" stop-opacity="0.62"/>
</linearGradient>
</defs>
</svg>
