<svg width="1920" height="1200" viewBox="0 0 1920 1200" fill="none" xmlns="http://www.w3.org/2000/svg">
<g clip-path="url(#clip0_77_212)">
<g opacity="0.1">
<path d="M32.4082 0.343994V673.968" stroke="#F3EDD8" stroke-opacity="0.5" stroke-width="0.688073"/>
<path d="M70.2522 0.343994V673.968" stroke="#F3EDD8" stroke-opacity="0.5" stroke-width="0.688073"/>
<path d="M108.096 0.343994V673.968" stroke="#F3EDD8" stroke-opacity="0.5" stroke-width="0.688073"/>
<path d="M145.94 0.343994V673.968" stroke="#F3EDD8" stroke-opacity="0.5" stroke-width="0.688073"/>
<path d="M183.784 0.343994V673.968" stroke="#F3EDD8" stroke-opacity="0.5" stroke-width="0.688073"/>
<path d="M221.628 0.343994V673.968" stroke="#F3EDD8" stroke-opacity="0.5" stroke-width="0.688073"/>
<path d="M259.472 0.343994V673.968" stroke="#F3EDD8" stroke-opacity="0.5" stroke-width="0.688073"/>
<path d="M297.316 0.343994V673.968" stroke="#F3EDD8" stroke-opacity="0.5" stroke-width="0.688073"/>
<path d="M335.161 0.343994V673.968" stroke="#F3EDD8" stroke-opacity="0.5" stroke-width="0.688073"/>
<path d="M373.005 0.343994V673.968" stroke="#F3EDD8" stroke-opacity="0.5" stroke-width="0.688073"/>
<path d="M410.849 0.343994V673.968" stroke="#F3EDD8" stroke-opacity="0.5" stroke-width="0.688073"/>
<path d="M448.693 0.343994V673.968" stroke="#F3EDD8" stroke-opacity="0.5" stroke-width="0.688073"/>
<path d="M486.537 0.343994V673.968" stroke="#F3EDD8" stroke-opacity="0.5" stroke-width="0.688073"/>
<path d="M524.381 0.343994V673.968" stroke="#F3EDD8" stroke-opacity="0.5" stroke-width="0.688073"/>
<path d="M562.225 0.343994V673.968" stroke="#F3EDD8" stroke-opacity="0.5" stroke-width="0.688073"/>
<path d="M600.069 0.343994V673.968" stroke="#F3EDD8" stroke-opacity="0.5" stroke-width="0.688073"/>
<path d="M637.913 0.343994V673.968" stroke="#F3EDD8" stroke-opacity="0.5" stroke-width="0.688073"/>
<path d="M675.757 0.343994V673.968" stroke="#F3EDD8" stroke-opacity="0.5" stroke-width="0.688073"/>
<path d="M713.601 0.343994V673.968" stroke="#F3EDD8" stroke-opacity="0.5" stroke-width="0.688073"/>
<path d="M751.445 0.343994V673.968" stroke="#F3EDD8" stroke-opacity="0.5" stroke-width="0.688073"/>
<path d="M789.289 0.343994V673.968" stroke="#F3EDD8" stroke-opacity="0.5" stroke-width="0.688073"/>
<path d="M827.133 0.343994V673.968" stroke="#F3EDD8" stroke-opacity="0.5" stroke-width="0.688073"/>
<path d="M864.977 0.343994V673.968" stroke="#F3EDD8" stroke-opacity="0.5" stroke-width="0.688073"/>
<path d="M902.821 0.343994V673.968" stroke="#F3EDD8" stroke-opacity="0.5" stroke-width="0.688073"/>
<path d="M940.665 0.343994V673.968" stroke="#F3EDD8" stroke-opacity="0.5" stroke-width="0.688073"/>
<path d="M978.509 0.343994V673.968" stroke="#F3EDD8" stroke-opacity="0.5" stroke-width="0.688073"/>
<path d="M1016.35 0.343994V673.968" stroke="#F3EDD8" stroke-opacity="0.5" stroke-width="0.688073"/>
<path d="M1054.2 0.343994V673.968" stroke="#F3EDD8" stroke-opacity="0.5" stroke-width="0.688073"/>
<path d="M1092.04 0.343994V673.968" stroke="#F3EDD8" stroke-opacity="0.5" stroke-width="0.688073"/>
<path d="M1129.89 0.343994V673.968" stroke="#F3EDD8" stroke-opacity="0.5" stroke-width="0.688073"/>
<path d="M1167.73 0.343994V673.968" stroke="#F3EDD8" stroke-opacity="0.5" stroke-width="0.688073"/>
<path d="M1205.57 0.343994V673.968" stroke="#F3EDD8" stroke-opacity="0.5" stroke-width="0.688073"/>
<path d="M32.4082 670.183V1200" stroke="#F3EDD8" stroke-opacity="0.5" stroke-width="0.688073"/>
<path d="M70.2522 670.183V1200" stroke="#F3EDD8" stroke-opacity="0.5" stroke-width="0.688073"/>
<path d="M108.096 670.183V1200" stroke="#F3EDD8" stroke-opacity="0.5" stroke-width="0.688073"/>
<path d="M145.94 670.183V1200" stroke="#F3EDD8" stroke-opacity="0.5" stroke-width="0.688073"/>
<path d="M183.784 670.183V1200" stroke="#F3EDD8" stroke-opacity="0.5" stroke-width="0.688073"/>
<path d="M221.628 670.183V1200" stroke="#F3EDD8" stroke-opacity="0.5" stroke-width="0.688073"/>
<path d="M259.472 670.183V1200" stroke="#F3EDD8" stroke-opacity="0.5" stroke-width="0.688073"/>
<path d="M297.316 670.183V1200" stroke="#F3EDD8" stroke-opacity="0.5" stroke-width="0.688073"/>
<path d="M335.161 670.183V1200" stroke="#F3EDD8" stroke-opacity="0.5" stroke-width="0.688073"/>
<path d="M373.005 670.183V1200" stroke="#F3EDD8" stroke-opacity="0.5" stroke-width="0.688073"/>
<path d="M410.849 670.183V1200" stroke="#F3EDD8" stroke-opacity="0.5" stroke-width="0.688073"/>
<path d="M448.693 670.183V1200" stroke="#F3EDD8" stroke-opacity="0.5" stroke-width="0.688073"/>
<path d="M486.537 670.183V1200" stroke="#F3EDD8" stroke-opacity="0.5" stroke-width="0.688073"/>
<path d="M524.381 670.183V1200" stroke="#F3EDD8" stroke-opacity="0.5" stroke-width="0.688073"/>
<path d="M562.225 670.183V1200" stroke="#F3EDD8" stroke-opacity="0.5" stroke-width="0.688073"/>
<path d="M600.069 670.183V1200" stroke="#F3EDD8" stroke-opacity="0.5" stroke-width="0.688073"/>
<path d="M637.913 670.183V1200" stroke="#F3EDD8" stroke-opacity="0.5" stroke-width="0.688073"/>
<path d="M675.757 670.183V1200" stroke="#F3EDD8" stroke-opacity="0.5" stroke-width="0.688073"/>
<path d="M713.601 670.183V1200" stroke="#F3EDD8" stroke-opacity="0.5" stroke-width="0.688073"/>
<path d="M751.445 670.183V1200" stroke="#F3EDD8" stroke-opacity="0.5" stroke-width="0.688073"/>
<path d="M789.289 670.183V1200" stroke="#F3EDD8" stroke-opacity="0.5" stroke-width="0.688073"/>
<path d="M827.133 670.183V1200" stroke="#F3EDD8" stroke-opacity="0.5" stroke-width="0.688073"/>
<path d="M864.977 670.183V1200" stroke="#F3EDD8" stroke-opacity="0.5" stroke-width="0.688073"/>
<path d="M902.821 670.183V1200" stroke="#F3EDD8" stroke-opacity="0.5" stroke-width="0.688073"/>
<path d="M940.665 670.183V1200" stroke="#F3EDD8" stroke-opacity="0.5" stroke-width="0.688073"/>
<path d="M978.509 670.183V1200" stroke="#F3EDD8" stroke-opacity="0.5" stroke-width="0.688073"/>
<path d="M1016.35 670.183V1200" stroke="#F3EDD8" stroke-opacity="0.5" stroke-width="0.688073"/>
<path d="M1054.2 670.183V1200" stroke="#F3EDD8" stroke-opacity="0.5" stroke-width="0.688073"/>
<path d="M1092.04 670.183V1200" stroke="#F3EDD8" stroke-opacity="0.5" stroke-width="0.688073"/>
<path d="M1129.89 670.183V1200" stroke="#F3EDD8" stroke-opacity="0.5" stroke-width="0.688073"/>
<path d="M1167.73 670.183V1200" stroke="#F3EDD8" stroke-opacity="0.5" stroke-width="0.688073"/>
<path d="M1205.57 670.183V1200" stroke="#F3EDD8" stroke-opacity="0.5" stroke-width="0.688073"/>
<path d="M1205.57 0V673.624" stroke="#F3EDD8" stroke-opacity="0.5" stroke-width="0.688073"/>
<path d="M1243.42 0V673.624" stroke="#F3EDD8" stroke-opacity="0.5" stroke-width="0.688073"/>
<path d="M1281.26 0V673.624" stroke="#F3EDD8" stroke-opacity="0.5" stroke-width="0.688073"/>
<path d="M1319.11 0V673.624" stroke="#F3EDD8" stroke-opacity="0.5" stroke-width="0.688073"/>
<path d="M1356.95 0V673.624" stroke="#F3EDD8" stroke-opacity="0.5" stroke-width="0.688073"/>
<path d="M1394.79 0V673.624" stroke="#F3EDD8" stroke-opacity="0.5" stroke-width="0.688073"/>
<path d="M1432.64 0V673.624" stroke="#F3EDD8" stroke-opacity="0.5" stroke-width="0.688073"/>
<path d="M1470.48 0V673.624" stroke="#F3EDD8" stroke-opacity="0.5" stroke-width="0.688073"/>
<path d="M1508.33 0V673.624" stroke="#F3EDD8" stroke-opacity="0.5" stroke-width="0.688073"/>
<path d="M1546.17 0V673.624" stroke="#F3EDD8" stroke-opacity="0.5" stroke-width="0.688073"/>
<path d="M1584.01 0V673.624" stroke="#F3EDD8" stroke-opacity="0.5" stroke-width="0.688073"/>
<path d="M1621.86 0V673.624" stroke="#F3EDD8" stroke-opacity="0.5" stroke-width="0.688073"/>
<path d="M1659.7 0V673.624" stroke="#F3EDD8" stroke-opacity="0.5" stroke-width="0.688073"/>
<path d="M1697.55 0V673.624" stroke="#F3EDD8" stroke-opacity="0.5" stroke-width="0.688073"/>
<path d="M1735.39 0V673.624" stroke="#F3EDD8" stroke-opacity="0.5" stroke-width="0.688073"/>
<path d="M1773.23 0V673.624" stroke="#F3EDD8" stroke-opacity="0.5" stroke-width="0.688073"/>
<path d="M1811.08 0V673.624" stroke="#F3EDD8" stroke-opacity="0.5" stroke-width="0.688073"/>
<path d="M1848.92 0V673.624" stroke="#F3EDD8" stroke-opacity="0.5" stroke-width="0.688073"/>
<path d="M1886.77 0V673.624" stroke="#F3EDD8" stroke-opacity="0.5" stroke-width="0.688073"/>
<path d="M1205.57 670.183V1200" stroke="#F3EDD8" stroke-opacity="0.5" stroke-width="0.688073"/>
<path d="M1243.42 670.183V1200" stroke="#F3EDD8" stroke-opacity="0.5" stroke-width="0.688073"/>
<path d="M1281.26 670.183V1200" stroke="#F3EDD8" stroke-opacity="0.5" stroke-width="0.688073"/>
<path d="M1319.11 670.183V1200" stroke="#F3EDD8" stroke-opacity="0.5" stroke-width="0.688073"/>
<path d="M1356.95 670.183V1200" stroke="#F3EDD8" stroke-opacity="0.5" stroke-width="0.688073"/>
<path d="M1394.79 670.183V1200" stroke="#F3EDD8" stroke-opacity="0.5" stroke-width="0.688073"/>
<path d="M1432.64 670.183V1200" stroke="#F3EDD8" stroke-opacity="0.5" stroke-width="0.688073"/>
<path d="M1470.48 670.183V1200" stroke="#F3EDD8" stroke-opacity="0.5" stroke-width="0.688073"/>
<path d="M1508.33 670.183V1200" stroke="#F3EDD8" stroke-opacity="0.5" stroke-width="0.688073"/>
<path d="M1546.17 670.183V1200" stroke="#F3EDD8" stroke-opacity="0.5" stroke-width="0.688073"/>
<path d="M1584.01 670.183V1200" stroke="#F3EDD8" stroke-opacity="0.5" stroke-width="0.688073"/>
<path d="M1621.86 670.183V1200" stroke="#F3EDD8" stroke-opacity="0.5" stroke-width="0.688073"/>
<path d="M1659.7 670.183V1200" stroke="#F3EDD8" stroke-opacity="0.5" stroke-width="0.688073"/>
<path d="M1697.55 670.183V1200" stroke="#F3EDD8" stroke-opacity="0.5" stroke-width="0.688073"/>
<path d="M1735.39 670.183V1200" stroke="#F3EDD8" stroke-opacity="0.5" stroke-width="0.688073"/>
<path d="M1773.23 670.183V1200" stroke="#F3EDD8" stroke-opacity="0.5" stroke-width="0.688073"/>
<path d="M1811.08 670.183V1200" stroke="#F3EDD8" stroke-opacity="0.5" stroke-width="0.688073"/>
<path d="M1848.92 670.183V1200" stroke="#F3EDD8" stroke-opacity="0.5" stroke-width="0.688073"/>
<path d="M1886.77 670.183V1200" stroke="#F3EDD8" stroke-opacity="0.5" stroke-width="0.688073"/>
<path d="M-45 1199.66H628.624" stroke="#F3EDD8" stroke-opacity="0.5" stroke-width="0.688073"/>
<path d="M-45 1161.81H628.624" stroke="#F3EDD8" stroke-opacity="0.5" stroke-width="0.688073"/>
<path d="M-45 1123.97H628.624" stroke="#F3EDD8" stroke-opacity="0.5" stroke-width="0.688073"/>
<path d="M-45 1086.12H628.624" stroke="#F3EDD8" stroke-opacity="0.5" stroke-width="0.688073"/>
<path d="M-45 1048.28H628.624" stroke="#F3EDD8" stroke-opacity="0.5" stroke-width="0.688073"/>
<path d="M-45 1010.44H628.624" stroke="#F3EDD8" stroke-opacity="0.5" stroke-width="0.688073"/>
<path d="M-45 972.592H628.624" stroke="#F3EDD8" stroke-opacity="0.5" stroke-width="0.688073"/>
<path d="M-45 934.748H628.624" stroke="#F3EDD8" stroke-opacity="0.5" stroke-width="0.688073"/>
<path d="M-45 896.904H628.624" stroke="#F3EDD8" stroke-opacity="0.5" stroke-width="0.688073"/>
<path d="M-45 859.06H628.624" stroke="#F3EDD8" stroke-opacity="0.5" stroke-width="0.688073"/>
<path d="M-45 821.216H628.624" stroke="#F3EDD8" stroke-opacity="0.5" stroke-width="0.688073"/>
<path d="M-45 783.372H628.624" stroke="#F3EDD8" stroke-opacity="0.5" stroke-width="0.688073"/>
<path d="M-45 745.528H628.624" stroke="#F3EDD8" stroke-opacity="0.5" stroke-width="0.688073"/>
<path d="M-45 707.683H628.624" stroke="#F3EDD8" stroke-opacity="0.5" stroke-width="0.688073"/>
<path d="M-45 669.839H628.624" stroke="#F3EDD8" stroke-opacity="0.5" stroke-width="0.688073"/>
<path d="M-45 631.995H628.624" stroke="#F3EDD8" stroke-opacity="0.5" stroke-width="0.688073"/>
<path d="M-45 594.151H628.624" stroke="#F3EDD8" stroke-opacity="0.5" stroke-width="0.688073"/>
<path d="M-45 556.307H628.624" stroke="#F3EDD8" stroke-opacity="0.5" stroke-width="0.688073"/>
<path d="M-45 518.463H628.624" stroke="#F3EDD8" stroke-opacity="0.5" stroke-width="0.688073"/>
<path d="M-45 480.619H628.624" stroke="#F3EDD8" stroke-opacity="0.5" stroke-width="0.688073"/>
<path d="M-45 442.775H628.624" stroke="#F3EDD8" stroke-opacity="0.5" stroke-width="0.688073"/>
<path d="M-45 404.931H628.624" stroke="#F3EDD8" stroke-opacity="0.5" stroke-width="0.688073"/>
<path d="M-45 367.087H628.624" stroke="#F3EDD8" stroke-opacity="0.5" stroke-width="0.688073"/>
<path d="M-45 329.243H628.624" stroke="#F3EDD8" stroke-opacity="0.5" stroke-width="0.688073"/>
<path d="M-45 291.399H628.624" stroke="#F3EDD8" stroke-opacity="0.5" stroke-width="0.688073"/>
<path d="M-45 253.555H628.624" stroke="#F3EDD8" stroke-opacity="0.5" stroke-width="0.688073"/>
<path d="M-45 215.711H628.624" stroke="#F3EDD8" stroke-opacity="0.5" stroke-width="0.688073"/>
<path d="M-45 177.867H628.624" stroke="#F3EDD8" stroke-opacity="0.5" stroke-width="0.688073"/>
<path d="M-45 140.023H628.624" stroke="#F3EDD8" stroke-opacity="0.5" stroke-width="0.688073"/>
<path d="M-45 102.179H628.624" stroke="#F3EDD8" stroke-opacity="0.5" stroke-width="0.688073"/>
<path d="M-45 64.3348L628.624 64.3347" stroke="#F3EDD8" stroke-opacity="0.5" stroke-width="0.688073"/>
<path d="M-45 26.4908L628.624 26.4907" stroke="#F3EDD8" stroke-opacity="0.5" stroke-width="0.688073"/>
<path d="M628.624 1199.66H1302.25" stroke="#F3EDD8" stroke-opacity="0.5" stroke-width="0.688073"/>
<path d="M628.624 1161.81H1302.25" stroke="#F3EDD8" stroke-opacity="0.5" stroke-width="0.688073"/>
<path d="M628.624 1123.97H1302.25" stroke="#F3EDD8" stroke-opacity="0.5" stroke-width="0.688073"/>
<path d="M628.624 1086.12H1302.25" stroke="#F3EDD8" stroke-opacity="0.5" stroke-width="0.688073"/>
<path d="M628.624 1048.28H1302.25" stroke="#F3EDD8" stroke-opacity="0.5" stroke-width="0.688073"/>
<path d="M628.624 1010.44H1302.25" stroke="#F3EDD8" stroke-opacity="0.5" stroke-width="0.688073"/>
<path d="M628.624 972.592H1302.25" stroke="#F3EDD8" stroke-opacity="0.5" stroke-width="0.688073"/>
<path d="M628.624 934.748H1302.25" stroke="#F3EDD8" stroke-opacity="0.5" stroke-width="0.688073"/>
<path d="M628.624 896.904H1302.25" stroke="#F3EDD8" stroke-opacity="0.5" stroke-width="0.688073"/>
<path d="M628.624 859.06H1302.25" stroke="#F3EDD8" stroke-opacity="0.5" stroke-width="0.688073"/>
<path d="M628.624 821.216H1302.25" stroke="#F3EDD8" stroke-opacity="0.5" stroke-width="0.688073"/>
<path d="M628.624 783.372H1302.25" stroke="#F3EDD8" stroke-opacity="0.5" stroke-width="0.688073"/>
<path d="M628.624 745.528H1302.25" stroke="#F3EDD8" stroke-opacity="0.5" stroke-width="0.688073"/>
<path d="M628.624 707.683H1302.25" stroke="#F3EDD8" stroke-opacity="0.5" stroke-width="0.688073"/>
<path d="M628.624 669.839H1302.25" stroke="#F3EDD8" stroke-opacity="0.5" stroke-width="0.688073"/>
<path d="M628.624 631.995H1302.25" stroke="#F3EDD8" stroke-opacity="0.5" stroke-width="0.688073"/>
<path d="M628.624 594.151H1302.25" stroke="#F3EDD8" stroke-opacity="0.5" stroke-width="0.688073"/>
<path d="M628.624 556.307H1302.25" stroke="#F3EDD8" stroke-opacity="0.5" stroke-width="0.688073"/>
<path d="M628.624 518.463H1302.25" stroke="#F3EDD8" stroke-opacity="0.5" stroke-width="0.688073"/>
<path d="M628.624 480.619H1302.25" stroke="#F3EDD8" stroke-opacity="0.5" stroke-width="0.688073"/>
<path d="M628.624 442.775H1302.25" stroke="#F3EDD8" stroke-opacity="0.5" stroke-width="0.688073"/>
<path d="M628.624 404.931H1302.25" stroke="#F3EDD8" stroke-opacity="0.5" stroke-width="0.688073"/>
<path d="M628.624 367.087H1302.25" stroke="#F3EDD8" stroke-opacity="0.5" stroke-width="0.688073"/>
<path d="M628.624 329.243H1302.25" stroke="#F3EDD8" stroke-opacity="0.5" stroke-width="0.688073"/>
<path d="M628.624 291.399H1302.25" stroke="#F3EDD8" stroke-opacity="0.5" stroke-width="0.688073"/>
<path d="M628.624 253.555H1302.25" stroke="#F3EDD8" stroke-opacity="0.5" stroke-width="0.688073"/>
<path d="M628.624 215.711H1302.25" stroke="#F3EDD8" stroke-opacity="0.5" stroke-width="0.688073"/>
<path d="M628.624 177.867H1302.25" stroke="#F3EDD8" stroke-opacity="0.5" stroke-width="0.688073"/>
<path d="M628.624 140.023H1302.25" stroke="#F3EDD8" stroke-opacity="0.5" stroke-width="0.688073"/>
<path d="M628.624 102.179H1302.25" stroke="#F3EDD8" stroke-opacity="0.5" stroke-width="0.688073"/>
<path d="M628.624 64.3348L1302.25 64.3347" stroke="#F3EDD8" stroke-opacity="0.5" stroke-width="0.688073"/>
<path d="M628.624 26.4908L1302.25 26.4907" stroke="#F3EDD8" stroke-opacity="0.5" stroke-width="0.688073"/>
<path d="M1302.25 1199.66H1975.87" stroke="#F3EDD8" stroke-opacity="0.5" stroke-width="0.688073"/>
<path d="M1302.25 1161.81H1975.87" stroke="#F3EDD8" stroke-opacity="0.5" stroke-width="0.688073"/>
<path d="M1302.25 1123.97H1975.87" stroke="#F3EDD8" stroke-opacity="0.5" stroke-width="0.688073"/>
<path d="M1302.25 1086.12H1975.87" stroke="#F3EDD8" stroke-opacity="0.5" stroke-width="0.688073"/>
<path d="M1302.25 1048.28H1975.87" stroke="#F3EDD8" stroke-opacity="0.5" stroke-width="0.688073"/>
<path d="M1302.25 1010.44H1975.87" stroke="#F3EDD8" stroke-opacity="0.5" stroke-width="0.688073"/>
<path d="M1302.25 972.592H1975.87" stroke="#F3EDD8" stroke-opacity="0.5" stroke-width="0.688073"/>
<path d="M1302.25 934.748H1975.87" stroke="#F3EDD8" stroke-opacity="0.5" stroke-width="0.688073"/>
<path d="M1302.25 896.904H1975.87" stroke="#F3EDD8" stroke-opacity="0.5" stroke-width="0.688073"/>
<path d="M1302.25 859.06H1975.87" stroke="#F3EDD8" stroke-opacity="0.5" stroke-width="0.688073"/>
<path d="M1302.25 821.216H1975.87" stroke="#F3EDD8" stroke-opacity="0.5" stroke-width="0.688073"/>
<path d="M1302.25 783.372H1975.87" stroke="#F3EDD8" stroke-opacity="0.5" stroke-width="0.688073"/>
<path d="M1302.25 745.528H1975.87" stroke="#F3EDD8" stroke-opacity="0.5" stroke-width="0.688073"/>
<path d="M1302.25 707.683H1975.87" stroke="#F3EDD8" stroke-opacity="0.5" stroke-width="0.688073"/>
<path d="M1302.25 669.839H1975.87" stroke="#F3EDD8" stroke-opacity="0.5" stroke-width="0.688073"/>
<path d="M1302.25 631.995H1975.87" stroke="#F3EDD8" stroke-opacity="0.5" stroke-width="0.688073"/>
<path d="M1302.25 594.151H1975.87" stroke="#F3EDD8" stroke-opacity="0.5" stroke-width="0.688073"/>
<path d="M1302.25 556.307H1975.87" stroke="#F3EDD8" stroke-opacity="0.5" stroke-width="0.688073"/>
<path d="M1302.25 518.463H1975.87" stroke="#F3EDD8" stroke-opacity="0.5" stroke-width="0.688073"/>
<path d="M1302.25 480.619H1975.87" stroke="#F3EDD8" stroke-opacity="0.5" stroke-width="0.688073"/>
<path d="M1302.25 442.775H1975.87" stroke="#F3EDD8" stroke-opacity="0.5" stroke-width="0.688073"/>
<path d="M1302.25 404.931H1975.87" stroke="#F3EDD8" stroke-opacity="0.5" stroke-width="0.688073"/>
<path d="M1302.25 367.087H1975.87" stroke="#F3EDD8" stroke-opacity="0.5" stroke-width="0.688073"/>
<path d="M1302.25 329.243H1975.87" stroke="#F3EDD8" stroke-opacity="0.5" stroke-width="0.688073"/>
<path d="M1302.25 291.399H1975.87" stroke="#F3EDD8" stroke-opacity="0.5" stroke-width="0.688073"/>
<path d="M1302.25 253.555H1975.87" stroke="#F3EDD8" stroke-opacity="0.5" stroke-width="0.688073"/>
<path d="M1302.25 215.711H1975.87" stroke="#F3EDD8" stroke-opacity="0.5" stroke-width="0.688073"/>
<path d="M1302.25 177.867H1975.87" stroke="#F3EDD8" stroke-opacity="0.5" stroke-width="0.688073"/>
<path d="M1302.25 140.023H1975.87" stroke="#F3EDD8" stroke-opacity="0.5" stroke-width="0.688073"/>
<path d="M1302.25 102.179H1975.87" stroke="#F3EDD8" stroke-opacity="0.5" stroke-width="0.688073"/>
<path d="M1302.25 64.3348L1975.87 64.3347" stroke="#F3EDD8" stroke-opacity="0.5" stroke-width="0.688073"/>
<path d="M1302.25 26.4908L1975.87 26.4907" stroke="#F3EDD8" stroke-opacity="0.5" stroke-width="0.688073"/>
</g>
<path d="M145.596 59.8623V68.1192" stroke="#F3EDD8" stroke-opacity="0.15" stroke-width="1.37615"/>
<path d="M150.02 63.9907H141.468" stroke="#F3EDD8" stroke-opacity="0.15" stroke-width="1.37615"/>
<path d="M145.596 211.239V219.495" stroke="#F3EDD8" stroke-opacity="0.15" stroke-width="1.37615"/>
<path d="M150.02 215.367H141.468" stroke="#F3EDD8" stroke-opacity="0.15" stroke-width="1.37615"/>
<path d="M145.596 362.615V370.872" stroke="#F3EDD8" stroke-opacity="0.15" stroke-width="1.37615"/>
<path d="M150.02 366.743H141.468" stroke="#F3EDD8" stroke-opacity="0.15" stroke-width="1.37615"/>
<path d="M145.596 513.991V522.248" stroke="#F3EDD8" stroke-opacity="0.15" stroke-width="1.37615"/>
<path d="M150.02 518.119H141.468" stroke="#F3EDD8" stroke-opacity="0.15" stroke-width="1.37615"/>
<path d="M145.596 665.367V673.624" stroke="#F3EDD8" stroke-opacity="0.15" stroke-width="1.37615"/>
<path d="M150.02 669.495H141.468" stroke="#F3EDD8" stroke-opacity="0.15" stroke-width="1.37615"/>
<path d="M145.596 816.743V825" stroke="#F3EDD8" stroke-opacity="0.15" stroke-width="1.37615"/>
<path d="M150.02 820.872H141.468" stroke="#F3EDD8" stroke-opacity="0.15" stroke-width="1.37615"/>
<path d="M145.596 968.119V976.376" stroke="#F3EDD8" stroke-opacity="0.15" stroke-width="1.37615"/>
<path d="M150.02 972.248H141.468" stroke="#F3EDD8" stroke-opacity="0.15" stroke-width="1.37615"/>
<path d="M145.596 1119.5V1127.75" stroke="#F3EDD8" stroke-opacity="0.15" stroke-width="1.37615"/>
<path d="M150.02 1123.62H141.468" stroke="#F3EDD8" stroke-opacity="0.15" stroke-width="1.37615"/>
<path d="M296.972 59.8623V68.1192" stroke="#F3EDD8" stroke-opacity="0.15" stroke-width="1.37615"/>
<path d="M301.396 63.9907H292.844" stroke="#F3EDD8" stroke-opacity="0.15" stroke-width="1.37615"/>
<path d="M296.972 211.239V219.495" stroke="#F3EDD8" stroke-opacity="0.15" stroke-width="1.37615"/>
<path d="M301.396 215.367H292.844" stroke="#F3EDD8" stroke-opacity="0.15" stroke-width="1.37615"/>
<path d="M296.972 362.615V370.872" stroke="#F3EDD8" stroke-opacity="0.15" stroke-width="1.37615"/>
<path d="M301.396 366.743H292.844" stroke="#F3EDD8" stroke-opacity="0.15" stroke-width="1.37615"/>
<path d="M296.972 513.991V522.248" stroke="#F3EDD8" stroke-opacity="0.15" stroke-width="1.37615"/>
<path d="M301.396 518.119H292.844" stroke="#F3EDD8" stroke-opacity="0.15" stroke-width="1.37615"/>
<path d="M296.972 665.367V673.624" stroke="#F3EDD8" stroke-opacity="0.15" stroke-width="1.37615"/>
<path d="M301.396 669.495H292.844" stroke="#F3EDD8" stroke-opacity="0.15" stroke-width="1.37615"/>
<path d="M296.972 816.743V825" stroke="#F3EDD8" stroke-opacity="0.15" stroke-width="1.37615"/>
<path d="M301.396 820.872H292.844" stroke="#F3EDD8" stroke-opacity="0.15" stroke-width="1.37615"/>
<path d="M296.972 968.119V976.376" stroke="#F3EDD8" stroke-opacity="0.15" stroke-width="1.37615"/>
<path d="M301.396 972.248H292.844" stroke="#F3EDD8" stroke-opacity="0.15" stroke-width="1.37615"/>
<path d="M296.972 1119.5V1127.75" stroke="#F3EDD8" stroke-opacity="0.15" stroke-width="1.37615"/>
<path d="M301.396 1123.62H292.844" stroke="#F3EDD8" stroke-opacity="0.15" stroke-width="1.37615"/>
<path d="M448.349 59.8623V68.1192" stroke="#F3EDD8" stroke-opacity="0.15" stroke-width="1.37615"/>
<path d="M452.772 63.9907H444.22" stroke="#F3EDD8" stroke-opacity="0.15" stroke-width="1.37615"/>
<path d="M448.349 211.239V219.495" stroke="#F3EDD8" stroke-opacity="0.15" stroke-width="1.37615"/>
<path d="M452.772 215.367H444.22" stroke="#F3EDD8" stroke-opacity="0.15" stroke-width="1.37615"/>
<path d="M448.349 362.615V370.872" stroke="#F3EDD8" stroke-opacity="0.15" stroke-width="1.37615"/>
<path d="M452.772 366.743H444.22" stroke="#F3EDD8" stroke-opacity="0.15" stroke-width="1.37615"/>
<path d="M448.349 513.991V522.248" stroke="#F3EDD8" stroke-opacity="0.15" stroke-width="1.37615"/>
<path d="M452.772 518.119H444.22" stroke="#F3EDD8" stroke-opacity="0.15" stroke-width="1.37615"/>
<path d="M448.349 665.367V673.624" stroke="#F3EDD8" stroke-opacity="0.15" stroke-width="1.37615"/>
<path d="M452.772 669.495H444.22" stroke="#F3EDD8" stroke-opacity="0.15" stroke-width="1.37615"/>
<path d="M448.349 816.743V825" stroke="#F3EDD8" stroke-opacity="0.15" stroke-width="1.37615"/>
<path d="M452.772 820.872H444.22" stroke="#F3EDD8" stroke-opacity="0.15" stroke-width="1.37615"/>
<path d="M448.349 968.119V976.376" stroke="#F3EDD8" stroke-opacity="0.15" stroke-width="1.37615"/>
<path d="M452.772 972.248H444.22" stroke="#F3EDD8" stroke-opacity="0.15" stroke-width="1.37615"/>
<path d="M448.349 1119.5V1127.75" stroke="#F3EDD8" stroke-opacity="0.15" stroke-width="1.37615"/>
<path d="M452.772 1123.62H444.22" stroke="#F3EDD8" stroke-opacity="0.15" stroke-width="1.37615"/>
<path d="M599.725 59.8623V68.1192" stroke="#F3EDD8" stroke-opacity="0.15" stroke-width="1.37615"/>
<path d="M604.148 63.9907H595.596" stroke="#F3EDD8" stroke-opacity="0.15" stroke-width="1.37615"/>
<path d="M599.725 211.239V219.495" stroke="#F3EDD8" stroke-opacity="0.15" stroke-width="1.37615"/>
<path d="M604.148 215.367H595.596" stroke="#F3EDD8" stroke-opacity="0.15" stroke-width="1.37615"/>
<path d="M599.725 362.615V370.872" stroke="#F3EDD8" stroke-opacity="0.15" stroke-width="1.37615"/>
<path d="M604.148 366.743H595.596" stroke="#F3EDD8" stroke-opacity="0.15" stroke-width="1.37615"/>
<path d="M599.725 513.991V522.248" stroke="#F3EDD8" stroke-opacity="0.15" stroke-width="1.37615"/>
<path d="M604.148 518.119H595.596" stroke="#F3EDD8" stroke-opacity="0.15" stroke-width="1.37615"/>
<path d="M599.725 665.367V673.624" stroke="#F3EDD8" stroke-opacity="0.15" stroke-width="1.37615"/>
<path d="M604.148 669.495H595.596" stroke="#F3EDD8" stroke-opacity="0.15" stroke-width="1.37615"/>
<path d="M599.725 816.743V825" stroke="#F3EDD8" stroke-opacity="0.15" stroke-width="1.37615"/>
<path d="M604.148 820.872H595.596" stroke="#F3EDD8" stroke-opacity="0.15" stroke-width="1.37615"/>
<path d="M599.725 968.119V976.376" stroke="#F3EDD8" stroke-opacity="0.15" stroke-width="1.37615"/>
<path d="M604.148 972.248H595.596" stroke="#F3EDD8" stroke-opacity="0.15" stroke-width="1.37615"/>
<path d="M599.725 1119.5V1127.75" stroke="#F3EDD8" stroke-opacity="0.15" stroke-width="1.37615"/>
<path d="M604.148 1123.62H595.596" stroke="#F3EDD8" stroke-opacity="0.15" stroke-width="1.37615"/>
<path d="M751.101 59.8623V68.1192" stroke="#F3EDD8" stroke-opacity="0.15" stroke-width="1.37615"/>
<path d="M755.525 63.9907H746.972" stroke="#F3EDD8" stroke-opacity="0.15" stroke-width="1.37615"/>
<path d="M751.101 211.239V219.495" stroke="#F3EDD8" stroke-opacity="0.15" stroke-width="1.37615"/>
<path d="M755.525 215.367H746.972" stroke="#F3EDD8" stroke-opacity="0.15" stroke-width="1.37615"/>
<path d="M751.101 362.615V370.872" stroke="#F3EDD8" stroke-opacity="0.15" stroke-width="1.37615"/>
<path d="M755.525 366.743H746.972" stroke="#F3EDD8" stroke-opacity="0.15" stroke-width="1.37615"/>
<path d="M751.101 513.991V522.248" stroke="#F3EDD8" stroke-opacity="0.15" stroke-width="1.37615"/>
<path d="M755.525 518.119H746.972" stroke="#F3EDD8" stroke-opacity="0.15" stroke-width="1.37615"/>
<path d="M751.101 665.367V673.624" stroke="#F3EDD8" stroke-opacity="0.15" stroke-width="1.37615"/>
<path d="M755.525 669.495H746.972" stroke="#F3EDD8" stroke-opacity="0.15" stroke-width="1.37615"/>
<path d="M751.101 816.743V825" stroke="#F3EDD8" stroke-opacity="0.15" stroke-width="1.37615"/>
<path d="M755.525 820.872H746.972" stroke="#F3EDD8" stroke-opacity="0.15" stroke-width="1.37615"/>
<path d="M751.101 968.119V976.376" stroke="#F3EDD8" stroke-opacity="0.15" stroke-width="1.37615"/>
<path d="M755.525 972.248H746.972" stroke="#F3EDD8" stroke-opacity="0.15" stroke-width="1.37615"/>
<path d="M751.101 1119.5V1127.75" stroke="#F3EDD8" stroke-opacity="0.15" stroke-width="1.37615"/>
<path d="M755.525 1123.62H746.972" stroke="#F3EDD8" stroke-opacity="0.15" stroke-width="1.37615"/>
<path d="M902.477 59.8623V68.1192" stroke="#F3EDD8" stroke-opacity="0.15" stroke-width="1.37615"/>
<path d="M906.901 63.9907H898.349" stroke="#F3EDD8" stroke-opacity="0.15" stroke-width="1.37615"/>
<path d="M902.477 211.239V219.495" stroke="#F3EDD8" stroke-opacity="0.15" stroke-width="1.37615"/>
<path d="M906.901 215.367H898.349" stroke="#F3EDD8" stroke-opacity="0.15" stroke-width="1.37615"/>
<path d="M902.477 362.615V370.872" stroke="#F3EDD8" stroke-opacity="0.15" stroke-width="1.37615"/>
<path d="M906.901 366.743H898.349" stroke="#F3EDD8" stroke-opacity="0.15" stroke-width="1.37615"/>
<path d="M902.477 513.991V522.248" stroke="#F3EDD8" stroke-opacity="0.15" stroke-width="1.37615"/>
<path d="M906.901 518.119H898.349" stroke="#F3EDD8" stroke-opacity="0.15" stroke-width="1.37615"/>
<path d="M902.477 665.367V673.624" stroke="#F3EDD8" stroke-opacity="0.15" stroke-width="1.37615"/>
<path d="M906.901 669.495H898.349" stroke="#F3EDD8" stroke-opacity="0.15" stroke-width="1.37615"/>
<path d="M902.477 816.743V825" stroke="#F3EDD8" stroke-opacity="0.15" stroke-width="1.37615"/>
<path d="M906.901 820.872H898.349" stroke="#F3EDD8" stroke-opacity="0.15" stroke-width="1.37615"/>
<path d="M902.477 968.119V976.376" stroke="#F3EDD8" stroke-opacity="0.15" stroke-width="1.37615"/>
<path d="M906.901 972.248H898.349" stroke="#F3EDD8" stroke-opacity="0.15" stroke-width="1.37615"/>
<path d="M902.477 1119.5V1127.75" stroke="#F3EDD8" stroke-opacity="0.15" stroke-width="1.37615"/>
<path d="M906.901 1123.62H898.349" stroke="#F3EDD8" stroke-opacity="0.15" stroke-width="1.37615"/>
<path d="M1053.85 59.8623V68.1192" stroke="#F3EDD8" stroke-opacity="0.15" stroke-width="1.37615"/>
<path d="M1058.28 63.9907H1049.72" stroke="#F3EDD8" stroke-opacity="0.15" stroke-width="1.37615"/>
<path d="M1053.85 211.239V219.495" stroke="#F3EDD8" stroke-opacity="0.15" stroke-width="1.37615"/>
<path d="M1058.28 215.367H1049.72" stroke="#F3EDD8" stroke-opacity="0.15" stroke-width="1.37615"/>
<path d="M1053.85 362.615V370.872" stroke="#F3EDD8" stroke-opacity="0.15" stroke-width="1.37615"/>
<path d="M1058.28 366.743H1049.72" stroke="#F3EDD8" stroke-opacity="0.15" stroke-width="1.37615"/>
<path d="M1053.85 513.991V522.248" stroke="#F3EDD8" stroke-opacity="0.15" stroke-width="1.37615"/>
<path d="M1058.28 518.119H1049.72" stroke="#F3EDD8" stroke-opacity="0.15" stroke-width="1.37615"/>
<path d="M1053.85 665.367V673.624" stroke="#F3EDD8" stroke-opacity="0.15" stroke-width="1.37615"/>
<path d="M1058.28 669.495H1049.72" stroke="#F3EDD8" stroke-opacity="0.15" stroke-width="1.37615"/>
<path d="M1053.85 816.743V825" stroke="#F3EDD8" stroke-opacity="0.15" stroke-width="1.37615"/>
<path d="M1058.28 820.872H1049.72" stroke="#F3EDD8" stroke-opacity="0.15" stroke-width="1.37615"/>
<path d="M1053.85 968.119V976.376" stroke="#F3EDD8" stroke-opacity="0.15" stroke-width="1.37615"/>
<path d="M1058.28 972.248H1049.72" stroke="#F3EDD8" stroke-opacity="0.15" stroke-width="1.37615"/>
<path d="M1053.85 1119.5V1127.75" stroke="#F3EDD8" stroke-opacity="0.15" stroke-width="1.37615"/>
<path d="M1058.28 1123.62H1049.72" stroke="#F3EDD8" stroke-opacity="0.15" stroke-width="1.37615"/>
<path d="M1205.23 59.8623V68.1192" stroke="#F3EDD8" stroke-opacity="0.15" stroke-width="1.37615"/>
<path d="M1209.65 63.9907H1201.1" stroke="#F3EDD8" stroke-opacity="0.15" stroke-width="1.37615"/>
<path d="M1205.23 211.239V219.495" stroke="#F3EDD8" stroke-opacity="0.15" stroke-width="1.37615"/>
<path d="M1209.65 215.367H1201.1" stroke="#F3EDD8" stroke-opacity="0.15" stroke-width="1.37615"/>
<path d="M1205.23 362.615V370.872" stroke="#F3EDD8" stroke-opacity="0.15" stroke-width="1.37615"/>
<path d="M1209.65 366.743H1201.1" stroke="#F3EDD8" stroke-opacity="0.15" stroke-width="1.37615"/>
<path d="M1205.23 513.991V522.248" stroke="#F3EDD8" stroke-opacity="0.15" stroke-width="1.37615"/>
<path d="M1209.65 518.119H1201.1" stroke="#F3EDD8" stroke-opacity="0.15" stroke-width="1.37615"/>
<path d="M1205.23 665.367V673.624" stroke="#F3EDD8" stroke-opacity="0.15" stroke-width="1.37615"/>
<path d="M1209.65 669.495H1201.1" stroke="#F3EDD8" stroke-opacity="0.15" stroke-width="1.37615"/>
<path d="M1205.23 816.743V825" stroke="#F3EDD8" stroke-opacity="0.15" stroke-width="1.37615"/>
<path d="M1209.65 820.872H1201.1" stroke="#F3EDD8" stroke-opacity="0.15" stroke-width="1.37615"/>
<path d="M1205.23 968.119V976.376" stroke="#F3EDD8" stroke-opacity="0.15" stroke-width="1.37615"/>
<path d="M1209.65 972.248H1201.1" stroke="#F3EDD8" stroke-opacity="0.15" stroke-width="1.37615"/>
<path d="M1205.23 1119.5V1127.75" stroke="#F3EDD8" stroke-opacity="0.15" stroke-width="1.37615"/>
<path d="M1209.65 1123.62H1201.1" stroke="#F3EDD8" stroke-opacity="0.15" stroke-width="1.37615"/>
<path d="M1356.61 59.8623V68.1192" stroke="#F3EDD8" stroke-opacity="0.15" stroke-width="1.37615"/>
<path d="M1361.03 63.9907H1352.48" stroke="#F3EDD8" stroke-opacity="0.15" stroke-width="1.37615"/>
<path d="M1356.61 211.239V219.495" stroke="#F3EDD8" stroke-opacity="0.15" stroke-width="1.37615"/>
<path d="M1361.03 215.367H1352.48" stroke="#F3EDD8" stroke-opacity="0.15" stroke-width="1.37615"/>
<path d="M1356.61 362.615V370.872" stroke="#F3EDD8" stroke-opacity="0.15" stroke-width="1.37615"/>
<path d="M1361.03 366.743H1352.48" stroke="#F3EDD8" stroke-opacity="0.15" stroke-width="1.37615"/>
<path d="M1356.61 513.991V522.248" stroke="#F3EDD8" stroke-opacity="0.15" stroke-width="1.37615"/>
<path d="M1361.03 518.119H1352.48" stroke="#F3EDD8" stroke-opacity="0.15" stroke-width="1.37615"/>
<path d="M1356.61 665.367V673.624" stroke="#F3EDD8" stroke-opacity="0.15" stroke-width="1.37615"/>
<path d="M1361.03 669.495H1352.48" stroke="#F3EDD8" stroke-opacity="0.15" stroke-width="1.37615"/>
<path d="M1356.61 816.743V825" stroke="#F3EDD8" stroke-opacity="0.15" stroke-width="1.37615"/>
<path d="M1361.03 820.872H1352.48" stroke="#F3EDD8" stroke-opacity="0.15" stroke-width="1.37615"/>
<path d="M1356.61 968.119V976.376" stroke="#F3EDD8" stroke-opacity="0.15" stroke-width="1.37615"/>
<path d="M1361.03 972.248H1352.48" stroke="#F3EDD8" stroke-opacity="0.15" stroke-width="1.37615"/>
<path d="M1356.61 1119.5V1127.75" stroke="#F3EDD8" stroke-opacity="0.15" stroke-width="1.37615"/>
<path d="M1361.03 1123.62H1352.48" stroke="#F3EDD8" stroke-opacity="0.15" stroke-width="1.37615"/>
<path d="M1507.98 59.8623V68.1192" stroke="#F3EDD8" stroke-opacity="0.15" stroke-width="1.37615"/>
<path d="M1512.41 63.9907H1503.85" stroke="#F3EDD8" stroke-opacity="0.15" stroke-width="1.37615"/>
<path d="M1507.98 211.239V219.495" stroke="#F3EDD8" stroke-opacity="0.15" stroke-width="1.37615"/>
<path d="M1512.41 215.367H1503.85" stroke="#F3EDD8" stroke-opacity="0.15" stroke-width="1.37615"/>
<path d="M1507.98 362.615V370.872" stroke="#F3EDD8" stroke-opacity="0.15" stroke-width="1.37615"/>
<path d="M1512.41 366.743H1503.85" stroke="#F3EDD8" stroke-opacity="0.15" stroke-width="1.37615"/>
<path d="M1507.98 513.991V522.248" stroke="#F3EDD8" stroke-opacity="0.15" stroke-width="1.37615"/>
<path d="M1512.41 518.119H1503.85" stroke="#F3EDD8" stroke-opacity="0.15" stroke-width="1.37615"/>
<path d="M1507.98 665.367V673.624" stroke="#F3EDD8" stroke-opacity="0.15" stroke-width="1.37615"/>
<path d="M1512.41 669.495H1503.85" stroke="#F3EDD8" stroke-opacity="0.15" stroke-width="1.37615"/>
<path d="M1507.98 816.743V825" stroke="#F3EDD8" stroke-opacity="0.15" stroke-width="1.37615"/>
<path d="M1512.41 820.872H1503.85" stroke="#F3EDD8" stroke-opacity="0.15" stroke-width="1.37615"/>
<path d="M1507.98 968.119V976.376" stroke="#F3EDD8" stroke-opacity="0.15" stroke-width="1.37615"/>
<path d="M1512.41 972.248H1503.85" stroke="#F3EDD8" stroke-opacity="0.15" stroke-width="1.37615"/>
<path d="M1507.98 1119.5V1127.75" stroke="#F3EDD8" stroke-opacity="0.15" stroke-width="1.37615"/>
<path d="M1512.41 1123.62H1503.85" stroke="#F3EDD8" stroke-opacity="0.15" stroke-width="1.37615"/>
<path d="M1659.36 59.8623V68.1192" stroke="#F3EDD8" stroke-opacity="0.15" stroke-width="1.37615"/>
<path d="M1663.78 63.9907H1655.23" stroke="#F3EDD8" stroke-opacity="0.15" stroke-width="1.37615"/>
<path d="M1659.36 211.239V219.495" stroke="#F3EDD8" stroke-opacity="0.15" stroke-width="1.37615"/>
<path d="M1663.78 215.367H1655.23" stroke="#F3EDD8" stroke-opacity="0.15" stroke-width="1.37615"/>
<path d="M1659.36 362.615V370.872" stroke="#F3EDD8" stroke-opacity="0.15" stroke-width="1.37615"/>
<path d="M1663.78 366.743H1655.23" stroke="#F3EDD8" stroke-opacity="0.15" stroke-width="1.37615"/>
<path d="M1659.36 513.991V522.248" stroke="#F3EDD8" stroke-opacity="0.15" stroke-width="1.37615"/>
<path d="M1663.78 518.119H1655.23" stroke="#F3EDD8" stroke-opacity="0.15" stroke-width="1.37615"/>
<path d="M1659.36 665.367V673.624" stroke="#F3EDD8" stroke-opacity="0.15" stroke-width="1.37615"/>
<path d="M1663.78 669.495H1655.23" stroke="#F3EDD8" stroke-opacity="0.15" stroke-width="1.37615"/>
<path d="M1659.36 816.743V825" stroke="#F3EDD8" stroke-opacity="0.15" stroke-width="1.37615"/>
<path d="M1663.78 820.872H1655.23" stroke="#F3EDD8" stroke-opacity="0.15" stroke-width="1.37615"/>
<path d="M1659.36 968.119V976.376" stroke="#F3EDD8" stroke-opacity="0.15" stroke-width="1.37615"/>
<path d="M1663.78 972.248H1655.23" stroke="#F3EDD8" stroke-opacity="0.15" stroke-width="1.37615"/>
<path d="M1659.36 1119.5V1127.75" stroke="#F3EDD8" stroke-opacity="0.15" stroke-width="1.37615"/>
<path d="M1663.78 1123.62H1655.23" stroke="#F3EDD8" stroke-opacity="0.15" stroke-width="1.37615"/>
<path d="M1810.73 59.8623V68.1192" stroke="#F3EDD8" stroke-opacity="0.15" stroke-width="1.37615"/>
<path d="M1815.16 63.9907H1806.61" stroke="#F3EDD8" stroke-opacity="0.15" stroke-width="1.37615"/>
<path d="M1810.73 211.239V219.495" stroke="#F3EDD8" stroke-opacity="0.15" stroke-width="1.37615"/>
<path d="M1815.16 215.367H1806.61" stroke="#F3EDD8" stroke-opacity="0.15" stroke-width="1.37615"/>
<path d="M1810.73 362.615V370.872" stroke="#F3EDD8" stroke-opacity="0.15" stroke-width="1.37615"/>
<path d="M1815.16 366.743H1806.61" stroke="#F3EDD8" stroke-opacity="0.15" stroke-width="1.37615"/>
<path d="M1810.73 513.991V522.248" stroke="#F3EDD8" stroke-opacity="0.15" stroke-width="1.37615"/>
<path d="M1815.16 518.119H1806.61" stroke="#F3EDD8" stroke-opacity="0.15" stroke-width="1.37615"/>
<path d="M1810.73 665.367V673.624" stroke="#F3EDD8" stroke-opacity="0.15" stroke-width="1.37615"/>
<path d="M1815.16 669.495H1806.61" stroke="#F3EDD8" stroke-opacity="0.15" stroke-width="1.37615"/>
<path d="M1810.73 816.743V825" stroke="#F3EDD8" stroke-opacity="0.15" stroke-width="1.37615"/>
<path d="M1815.16 820.872H1806.61" stroke="#F3EDD8" stroke-opacity="0.15" stroke-width="1.37615"/>
<path d="M1810.73 968.119V976.376" stroke="#F3EDD8" stroke-opacity="0.15" stroke-width="1.37615"/>
<path d="M1815.16 972.248H1806.61" stroke="#F3EDD8" stroke-opacity="0.15" stroke-width="1.37615"/>
<path d="M1810.73 1119.5V1127.75" stroke="#F3EDD8" stroke-opacity="0.15" stroke-width="1.37615"/>
<path d="M1815.16 1123.62H1806.61" stroke="#F3EDD8" stroke-opacity="0.15" stroke-width="1.37615"/>
</g>
<defs>
<clipPath id="clip0_77_212">
<rect width="2020.87" height="1200" fill="white" transform="translate(-45)"/>
</clipPath>
</defs>
</svg>
