<svg width="1920" height="149" viewBox="0 0 1920 149" fill="none" xmlns="http://www.w3.org/2000/svg">
<g filter="url(#filter0_f_42_40)">
<path d="M139.864 48.9999L67.4205 121.443H16L88.4432 48.9999H139.864Z" fill="url(#paint0_linear_42_40)"/>
<path d="M216 48.9999L143.557 121.443H92.1364L164.58 48.9999H216Z" fill="url(#paint1_linear_42_40)"/>
<path d="M139.864 45.4999H148.313L142.339 51.4748L69.8953 123.918L68.8702 124.943H67.4205H16H7.55025L13.5251 118.968L85.9683 46.5251L86.9934 45.4999H88.4432H139.864ZM216 45.4999H224.45L218.475 51.4748L146.032 123.918L145.007 124.943H143.557H92.1364H83.6866L89.6615 118.968L162.105 46.5251L163.13 45.4999H164.58H216Z" stroke="url(#paint2_linear_42_40)" stroke-width="7" stroke-linecap="square"/>
</g>
<g filter="url(#filter1_f_42_40)">
<path d="M1828.86 121.222L1756.42 49H1705L1777.44 121.222H1828.86Z" fill="url(#paint3_linear_42_40)"/>
<path d="M1905 121.222L1832.56 49H1781.14L1853.58 121.222H1905Z" fill="url(#paint4_linear_42_40)"/>
<path d="M1828.86 124.722H1837.33L1831.33 118.744L1758.89 46.5213L1757.87 45.5H1756.42H1705H1696.53L1702.53 51.4787L1774.97 123.701L1776 124.722H1777.44H1828.86ZM1905 124.722H1913.47L1907.47 118.744L1835.03 46.5213L1834 45.5H1832.56H1781.14H1772.67L1778.67 51.4787L1851.11 123.701L1852.13 124.722H1853.58H1905Z" stroke="url(#paint5_linear_42_40)" stroke-width="7" stroke-linecap="square"/>
</g>
<g filter="url(#filter2_b_42_40)">
<path d="M4 34H233.5L308 58.5H648L700.5 35H1208L1273 57H1610L1685 35H1918.5" stroke="#5D73E6" stroke-width="7" stroke-linecap="square"/>
</g>
<g filter="url(#filter3_f_42_40)">
<path d="M649 84.5L701.5 61H1209L1274 83" stroke="#5D73E6" stroke-width="18"/>
</g>
<defs>
<filter id="filter0_f_42_40" x="-20.8994" y="22" width="273.799" height="126.443" filterUnits="userSpaceOnUse" color-interpolation-filters="sRGB">
<feFlood flood-opacity="0" result="BackgroundImageFix"/>
<feBlend mode="normal" in="SourceGraphic" in2="BackgroundImageFix" result="shape"/>
<feGaussianBlur stdDeviation="10" result="effect1_foregroundBlur_42_40"/>
</filter>
<filter id="filter1_f_42_40" x="1668.06" y="22" width="273.872" height="126.222" filterUnits="userSpaceOnUse" color-interpolation-filters="sRGB">
<feFlood flood-opacity="0" result="BackgroundImageFix"/>
<feBlend mode="normal" in="SourceGraphic" in2="BackgroundImageFix" result="shape"/>
<feGaussianBlur stdDeviation="10" result="effect1_foregroundBlur_42_40"/>
</filter>
<filter id="filter2_b_42_40" x="-3.5" y="26.5" width="1929.5" height="39.5" filterUnits="userSpaceOnUse" color-interpolation-filters="sRGB">
<feFlood flood-opacity="0" result="BackgroundImageFix"/>
<feGaussianBlur in="BackgroundImageFix" stdDeviation="2"/>
<feComposite in2="SourceAlpha" operator="in" result="effect1_backgroundBlur_42_40"/>
<feBlend mode="normal" in="SourceGraphic" in2="effect1_backgroundBlur_42_40" result="shape"/>
</filter>
<filter id="filter3_f_42_40" x="594.223" y="0.900002" width="733.762" height="142.915" filterUnits="userSpaceOnUse" color-interpolation-filters="sRGB">
<feFlood flood-opacity="0" result="BackgroundImageFix"/>
<feBlend mode="normal" in="SourceGraphic" in2="BackgroundImageFix" result="shape"/>
<feGaussianBlur stdDeviation="25.55" result="effect1_foregroundBlur_42_40"/>
</filter>
<linearGradient id="paint0_linear_42_40" x1="116" y1="130.534" x2="120.83" y2="41.3295" gradientUnits="userSpaceOnUse">
<stop stop-color="#5D73E6"/>
<stop offset="1" stop-color="#777FC9" stop-opacity="0.62"/>
</linearGradient>
<linearGradient id="paint1_linear_42_40" x1="116" y1="130.534" x2="120.83" y2="41.3295" gradientUnits="userSpaceOnUse">
<stop stop-color="#5D73E6"/>
<stop offset="1" stop-color="#777FC9" stop-opacity="0.62"/>
</linearGradient>
<linearGradient id="paint2_linear_42_40" x1="116" y1="121.443" x2="116" y2="48.9999" gradientUnits="userSpaceOnUse">
<stop stop-color="#5D73E6"/>
<stop offset="1" stop-color="#777FC9" stop-opacity="0.62"/>
</linearGradient>
<linearGradient id="paint3_linear_42_40" x1="1805" y1="49" x2="1805" y2="121.222" gradientUnits="userSpaceOnUse">
<stop stop-color="#5D73E6"/>
<stop offset="1" stop-color="#777FC9" stop-opacity="0.62"/>
</linearGradient>
<linearGradient id="paint4_linear_42_40" x1="1805" y1="49" x2="1805" y2="121.222" gradientUnits="userSpaceOnUse">
<stop stop-color="#5D73E6"/>
<stop offset="1" stop-color="#777FC9" stop-opacity="0.62"/>
</linearGradient>
<linearGradient id="paint5_linear_42_40" x1="1805" y1="49" x2="1805" y2="121.222" gradientUnits="userSpaceOnUse">
<stop stop-color="#5D73E6"/>
<stop offset="1" stop-color="#777FC9" stop-opacity="0.62"/>
</linearGradient>
</defs>
</svg>
