<svg width="1920" height="1080" viewBox="0 0 1920 1080" fill="none" xmlns="http://www.w3.org/2000/svg">
<g filter="url(#filter0_b_143_10)">
<path d="M789.367 21.6203L778.324 8.7331C773.575 3.19022 766.64 0 759.341 0H83.3757C75.3602 0 67.6779 3.20766 62.0424 8.9076L8.66668 62.893C3.11412 68.5089 0 76.0879 0 83.9854V449.686C0 461.239 5.7007 472.047 15.2348 478.571L24.0409 484.597C32.213 490.189 37.0993 499.406 37.0993 509.308V638.93C37.0993 649.327 31.7162 658.939 22.8723 664.405L16.5982 668.283C6.28029 674.66 0 685.925 0 698.055V1062.23C0 1070.13 3.11412 1077.71 8.66668 1083.33L62.8153 1138.09C68.4509 1143.79 76.1331 1147 84.1486 1147H613.169L838.957 1146.02C847.76 1145.98 855.489 1140.16 857.953 1131.71C860.071 1124.44 866.735 1119.44 874.308 1119.44H995.478C1002.61 1119.44 1008.67 1124.63 1009.77 1131.68C1011.04 1139.9 1018.12 1145.96 1026.44 1145.96H1791.14C1799.02 1145.96 1806.58 1142.86 1812.2 1137.33L1864.05 1086.24C1869.78 1080.6 1873 1072.9 1873 1064.87V696.435C1873 684.336 1866.75 673.095 1856.48 666.708L1846.05 660.229C1837.26 654.763 1831.9 645.15 1831.89 634.797L1831.79 572.849V512.664C1831.79 502.376 1837.06 492.805 1845.75 487.307L1856.69 480.392C1866.84 473.973 1873 462.797 1872.99 450.786L1872.75 81.6289C1872.75 73.7381 1869.63 66.167 1864.08 60.5558L1814.03 9.93116C1808.41 4.24229 1800.74 1.03557 1792.74 1.0236L1121.24 0.0185276C1113.44 0.00685228 1106.08 3.63688 1101.34 9.83358L1093.98 19.4564C1084.52 31.8289 1069.84 39.0865 1054.26 39.0865H938.819H870.288H827.335C812.736 39.0865 798.866 32.7061 789.367 21.6203Z" fill="#D9D9D9"/>
</g>
<defs>
<filter id="filter0_b_143_10" x="-4" y="-4" width="1980" height="1080" filterUnits="userSpaceOnUse" color-interpolation-filters="sRGB">
<feFlood flood-opacity="0" result="BackgroundImageFix"/>
<feGaussianBlur in="BackgroundImageFix" stdDeviation="2"/>
<feComposite in2="SourceAlpha" operator="in" result="effect1_backgroundBlur_143_10"/>
<feBlend mode="normal" in="SourceGraphic" in2="effect1_backgroundBlur_143_10" result="shape"/>
</filter>
</defs>
</svg>
